<svg width="40" height="40" viewBox="0 0 40 40" fill="none" xmlns="http://www.w3.org/2000/svg">
<path d="M0 20C0 8.95431 8.95431 0 20 0C31.0457 0 40 8.95431 40 20C40 31.0457 31.0457 40 20 40C8.95431 40 0 31.0457 0 20Z" fill="#3367ED"/>
<path d="M8.07085 27H6.22425L11.5652 12.4545H13.3833L18.7243 27H16.8777L12.5311 14.7557H12.4174L8.07085 27ZM8.75266 21.3182H16.1958V22.8807H8.75266V21.3182ZM32.524 12.4545V27H30.8194L22.8933 15.5795H22.7512V27H20.9899V12.4545H22.6944L30.649 23.9034H30.791V12.4545H32.524Z" fill="#F5F5F5"/>
</svg>
