<svg width="30" height="32" viewBox="0 0 30 32" fill="none" xmlns="http://www.w3.org/2000/svg">
<g opacity="0.75" filter="url(#filter0_d_10_1506)">
<path d="M24.3334 22.5091V20.3653C24.3334 19.2282 23.8417 18.1377 22.9665 17.3337C22.0914 16.5296 20.9044 16.0779 19.6667 16.0779H10.3334C9.09568 16.0779 7.90869 16.5296 7.03352 17.3337C6.15835 18.1377 5.66669 19.2282 5.66669 20.3653V22.5091M19.6667 7.50302C19.6667 9.8709 17.5773 11.7905 15 11.7905C12.4227 11.7905 10.3334 9.8709 10.3334 7.50302C10.3334 5.13513 12.4227 3.21558 15 3.21558C17.5773 3.21558 19.6667 5.13513 19.6667 7.50302Z" stroke="black" stroke-width="3" stroke-linecap="round" stroke-linejoin="round"/>
</g>
<defs>
<filter id="filter0_d_10_1506" x="-3" y="0" width="36" height="33.7246" filterUnits="userSpaceOnUse" color-interpolation-filters="sRGB">
<feFlood flood-opacity="0" result="BackgroundImageFix"/>
<feColorMatrix in="SourceAlpha" type="matrix" values="0 0 0 0 0 0 0 0 0 0 0 0 0 0 0 0 0 0 127 0" result="hardAlpha"/>
<feOffset dy="4"/>
<feGaussianBlur stdDeviation="2"/>
<feComposite in2="hardAlpha" operator="out"/>
<feColorMatrix type="matrix" values="0 0 0 0 0 0 0 0 0 0 0 0 0 0 0 0 0 0 0.25 0"/>
<feBlend mode="normal" in2="BackgroundImageFix" result="effect1_dropShadow_10_1506"/>
<feBlend mode="normal" in="SourceGraphic" in2="effect1_dropShadow_10_1506" result="shape"/>
</filter>
</defs>
</svg>
